<?xml version="1.0" encoding="UTF-8"?>
<svg width="48px" height="48px" viewBox="0 0 48 48" version="1.1" xmlns="http://www.w3.org/2000/svg" xmlns:xlink="http://www.w3.org/1999/xlink">
    <title>指标异常</title>
    <defs>
        <radialGradient cx="50%" cy="0%" fx="50%" fy="0%" r="100%" id="radialGradient-1">
            <stop stop-color="#FD97A1" offset="0%"></stop>
            <stop stop-color="#FF3C44" offset="100%"></stop>
        </radialGradient>
        <path d="M8.04416039,7.1588005 C8.15994237,7.27857517 8.24478295,7.38836842 8.29868155,7.48818083 C8.35258015,7.58799325 8.34359705,7.70177918 8.27173225,7.82953863 C8.25576228,7.85349356 8.23380363,7.88243909 8.20585619,7.91637526 C8.17790875,7.95031144 8.14896322,7.98324965 8.11901955,8.01518936 C8.08907589,8.04712925 8.05913222,8.07607501 8.02918855,8.102026 C7.99924489,8.12797715 7.97429181,8.1469415 7.95432939,8.15891896 C7.85451697,8.21880629 7.73673894,8.23477645 7.60099412,8.20682883 C7.46524931,8.17888139 7.34347859,8.1110091 7.23568139,8.0032119 L6.9841546,7.7516851 L6.64878553,7.41631603 L6.25352913,7.02105964 L5.82234034,6.58987084 L5.05578247,7.3564287 C4.82022583,7.59198535 4.62858636,7.78562145 4.48086408,7.93733583 C4.3291497,8.08905021 4.17843305,8.1828739 4.02871471,8.21880629 C3.87899638,8.25473869 3.74624593,8.22080254 3.63046395,8.11699783 L3.58854282,8.0750767 L3.52266675,8.00920063 L3.45679068,7.94332456 C3.43283575,7.91936963 3.41886206,7.90339966 3.41486955,7.8954147 C3.37095219,7.83951987 3.3450008,7.78262708 3.33701602,7.7247358 C3.32903106,7.66684469 3.33402165,7.60995155 3.35198785,7.5540569 C3.36995405,7.49816207 3.39690335,7.44426365 3.43283575,7.3923611 C3.46876815,7.34045873 3.50869323,7.29254868 3.55261042,7.2486315 C3.58854282,7.21669161 3.65242283,7.15680445 3.74424988,7.0689695 L4.06764148,6.73360044 C4.19939361,6.60584099 4.34611758,6.46211139 4.50781338,6.30241164 C4.66950918,6.14271189 4.83819203,5.97502736 5.01386134,5.79935804 C4.82222188,5.60771858 4.63956551,5.42606053 4.46589224,5.25438331 C4.29221898,5.0827061 4.13651191,4.92899567 3.99877105,4.79325085 C3.86103018,4.65750603 3.74824257,4.54671447 3.66040762,4.46087615 C3.57257267,4.37503784 3.51867407,4.32213697 3.49871182,4.30217472 C3.3949073,4.1983702 3.34200643,4.09556342 3.34001039,3.99375496 C3.33801414,3.89194649 3.37294842,3.78913971 3.44481322,3.68533519 C3.47675311,3.64541028 3.52266675,3.59849856 3.58255408,3.54459996 C3.64244142,3.49070136 3.68436255,3.45576728 3.70831748,3.43979713 C3.82809215,3.35994754 3.93588935,3.32501288 4.03170908,3.33499429 C4.12752881,3.34497553 4.22334855,3.39987204 4.31916828,3.49968446 L4.50481901,3.68533519 C4.59664606,3.77716224 4.71043199,3.88895212 4.84617681,4.02070426 C4.98192163,4.15245639 5.13463432,4.3011764 5.30431491,4.46686489 C5.47399549,4.63255337 5.65066312,4.80522832 5.8343178,4.98489032 C5.98603218,4.83317593 6.13475278,4.68545365 6.28047843,4.54172405 C6.42620408,4.39799445 6.5619489,4.26324795 6.6877123,4.13748455 C6.8134757,4.01172116 6.92726163,3.89893354 7.02907009,3.79912112 C7.13087856,3.69930871 7.21571914,3.61546644 7.28359126,3.54759433 C7.37941099,3.45576728 7.48321551,3.39488163 7.59500539,3.36493796 C7.70679527,3.33499429 7.81459247,3.35994735 7.91839699,3.43979713 C7.92238948,3.44378962 7.93536505,3.45377082 7.95732376,3.46974079 C7.97928246,3.48571077 8.00124111,3.50367697 8.02319982,3.52363939 C8.04515853,3.54360182 8.0661191,3.56256616 8.08608152,3.58053236 C8.10604395,3.59849856 8.1200177,3.60947788 8.12800265,3.61347039 C8.23579985,3.71727491 8.28870014,3.83006311 8.28670409,3.95183382 C8.28470784,4.07360454 8.23180735,4.18639274 8.12800265,4.29019725 C8.05613785,4.36206205 7.96730517,4.45189305 7.86150402,4.55969025 C7.75570287,4.66748745 7.63792484,4.78526607 7.50816876,4.91302552 C7.37841268,5.04078497 7.24167013,5.17652978 7.09794053,5.32025938 L6.6427968,5.77540311 C6.79051908,5.91913271 6.93524641,6.05986794 7.07697996,6.19760881 C7.21871351,6.33534967 7.35046564,6.46410744 7.47223636,6.58388211 C7.59400707,6.70365677 7.70380091,6.81345002 7.80161669,6.91326244 C7.89943247,7.01307485 7.98028037,7.09492049 8.04416039,7.1588005 Z" id="path-2"></path>
        <filter x="-140.0%" y="-102.1%" width="380.0%" height="385.8%" filterUnits="objectBoundingBox" id="filter-3">
            <feOffset dx="0" dy="2" in="SourceAlpha" result="shadowOffsetOuter1"></feOffset>
            <feGaussianBlur stdDeviation="2" in="shadowOffsetOuter1" result="shadowBlurOuter1"></feGaussianBlur>
            <feColorMatrix values="0 0 0 0 1   0 0 0 0 0   0 0 0 0 0.041025641  0 0 0 1 0" type="matrix" in="shadowBlurOuter1"></feColorMatrix>
        </filter>
    </defs>
    <g id="页面-1" stroke="none" stroke-width="0" fill="none" fill-rule="evenodd">
        <g id="患者入选-2备份-4" transform="translate(-852, -862)">
            <g id="指标异常" transform="translate(852, 862)">
                <rect id="矩形备份-5" fill="#FFFFFF" x="0" y="0" width="48" height="48" rx="8"></rect>
                <path d="M24,12 C17.3732143,12 12,17.3732143 12,24 C12,25.6526786 12.3348214,27.2303571 12.9401786,28.6633929 L19.14375,20.7026786 L23.4964286,25.1705357 L26.5526786,21.3107143 L24.6857143,19.44375 L32.1455357,17.4455357 L30.1473214,24.9053571 L28.2616071,23.0196429 L23.5794643,28.6928571 L19.3473214,24.3535714 L14.2151786,30.9294643 C16.3901786,33.99375 19.9580357,36 24,36 C30.6267857,36 36,30.6267857 36,24 C36,17.3705357 30.6294643,12 24,12 Z" id="路径" fill="url(#radialGradient-1)" fill-rule="nonzero"></path>
                <g id="编组" transform="translate(26.6667, 27.6667)" fill-rule="nonzero">
                    <path d="M5.7566461,-0.495522277 C7.67006449,-0.498078089 9.33707882,0.218367759 10.5367646,1.37390531 C11.7606616,2.55276308 12.5,4.18998569 12.5,6 C12.5,7.75082535 11.8077609,9.3399624 10.6820801,10.5086817 C9.55205726,11.6819091 7.98519217,12.4313246 6.2433539,12.4955223 C4.19266315,12.5003322 2.57578235,11.7681703 1.40380603,10.596194 C0.227537332,9.41992529 -0.5,7.79492526 -0.5,6 C-0.5,4.24917455 0.192239085,2.66003752 1.31791987,1.49131823 C2.44794269,0.318090883 4.01480779,-0.43132458 5.7566461,-0.495522277 Z" id="路径备份" stroke="#FFFFFF" fill-opacity="0.432588164" fill="#FFFFFF"></path>
                    <g id="路径">
                        <use fill="black" fill-opacity="1" filter="url(#filter-3)" xlink:href="#path-2"></use>
                        <use fill="#FFFFFF" xlink:href="#path-2"></use>
                    </g>
                </g>
            </g>
        </g>
    </g>
</svg>