<?xml version="1.0" encoding="UTF-8"?>
<svg width="48px" height="48px" viewBox="0 0 48 48" version="1.1" xmlns="http://www.w3.org/2000/svg" xmlns:xlink="http://www.w3.org/1999/xlink">
    <title>待审核入组</title>
    <defs>
        <radialGradient cx="28.2649257%" cy="0%" fx="28.2649257%" fy="0%" r="74.8705581%" gradientTransform="translate(0.2826, 0), scale(1, 0.9), rotate(90), translate(-0.2826, -0)" id="radialGradient-1">
            <stop stop-color="#F9D387" offset="0%"></stop>
            <stop stop-color="#FF8E00" offset="100%"></stop>
        </radialGradient>
        <path d="M31.7552129,31.503687 L34.9945946,31.503687 L34.9945947,31.503687 C35.3582068,31.503687 35.6529714,31.2089224 35.6529714,30.8453103 C35.6529714,30.4816981 35.3582068,30.1869335 34.9945947,30.1869335 L31.755213,30.1869335 L31.755213,30.1869335 C31.3916009,30.1869335 31.0968362,30.4816981 31.0968362,30.8453103 C31.0968362,31.2089224 31.3916009,31.503687 31.755213,31.503687 C31.755213,31.503687 31.755213,31.503687 31.755213,31.503687 L31.7552129,31.503687 Z M34.9925028,32.5390291 L33.3680867,32.5390291 L33.3680867,32.5390291 C33.0041854,32.5535591 32.720963,32.8603381 32.7354934,33.2242394 C32.7492099,33.5677695 33.0245566,33.8431165 33.3680867,33.8568327 L34.9925027,33.8568327 L34.9925028,33.8568327 C35.3564041,33.8423027 35.6396264,33.5355237 35.6250961,33.1716224 C35.6113795,32.8280923 35.3360329,32.5527453 34.9925028,32.5390291 L34.9925028,32.5390291 Z M34.9925028,34.8837826 L31.7552129,34.8837826 L31.755213,34.8837826 C31.3916008,34.8837826 31.0968362,35.1785473 31.0968362,35.5421594 C31.0968362,35.9057716 31.3916008,36.2005362 31.755213,36.2005362 C31.755213,36.2005362 31.755213,36.2005362 31.755213,36.2005362 L34.9945947,36.2005362 L34.9945947,36.2005362 C35.3582068,36.2005362 35.6529715,35.9057716 35.6529715,35.5421594 C35.6529715,35.1785473 35.3582068,34.8837826 34.9945947,34.8837826 C34.9945947,34.8837826 34.9945947,34.8837826 34.9945947,34.8837826 L34.9925028,34.8837826 Z" id="path-2"></path>
        <filter x="-153.6%" y="-83.1%" width="407.3%" height="332.8%" filterUnits="objectBoundingBox" id="filter-3">
            <feOffset dx="0" dy="2" in="SourceAlpha" result="shadowOffsetOuter1"></feOffset>
            <feGaussianBlur stdDeviation="2" in="shadowOffsetOuter1" result="shadowBlurOuter1"></feGaussianBlur>
            <feColorMatrix values="0 0 0 0 0.992156863   0 0 0 0 0.549019608   0 0 0 0 0  0 0 0 1 0" type="matrix" in="shadowBlurOuter1"></feColorMatrix>
        </filter>
    </defs>
    <g id="页面-1" stroke="none" stroke-width="0" fill="none" fill-rule="evenodd">
        <g id="患者入选-2备份-4" transform="translate(-389, -862)">
            <g id="待审核入组" transform="translate(389, 862)">
                <rect id="矩形备份-4" fill="#FFFFFF" x="0" y="0" width="48" height="48" rx="8"></rect>
                <path d="M24.0000112,16.4166974 C25.9923574,16.4154161 27.9723067,16.7302196 29.8660184,17.3493673 L30.1230947,17.4364065 C30.7054976,17.6387318 31.1650192,17.833785 31.4846871,17.9813684 C31.653753,18.0590963 31.8204907,18.1417977 31.9846784,18.2293647 L32,18.237 L32.0000371,19.083337 C32.0000371,21.5629019 30.8717371,23.7791338 29.1005901,25.246578 C30.2906798,25.6288903 31.3481417,26.102303 32.2386648,26.5700258 C33.141777,27.0441013 33.88581,27.5181745 34.4361168,27.9014137 L34.6333331,28.040693 C34.9193366,28.2454908 35.1983838,28.4598342 35.4699998,28.6833595 L35.5206664,28.7260261 L35.5359997,28.7393594 L35.5439998,28.7460261 L35.506,28.789 L35.5447071,28.7466926 C35.8340362,28.9998523 36.000042,29.3655777 36.000042,29.7500282 L36.000042,35.0833785 C36.000042,35.8197575 35.4030881,36.4167145 34.666706,36.4167145 L13.333336,36.4167145 C12.596957,36.4167145 12,35.8197606 12,35.0833785 L12,29.7501357 C12,29.3656852 12.1659443,28.9999472 12.4552537,28.7467657 L12.463814,28.755126 L12.4640006,28.7393615 L12.4793339,28.7260282 L12.5300018,28.6833605 C12.7110897,28.5344968 12.8954732,28.3897109 13.0830118,28.2491097 L13.3666697,28.0413588 C14.1304019,27.4966769 14.9304904,27.0048638 15.761332,26.5693601 C16.6518579,26.1019305 17.7093201,25.6286818 18.8987543,25.2454055 C17.1279997,23.7785095 16.0000175,21.5625527 16.0000175,19.083337 L16,18.238 L16.015335,18.2293687 C16.0974351,18.1855948 16.18017,18.1430322 16.2635125,18.1016944 L16.5153356,17.9813684 L16.9131954,17.8064403 C17.3134448,17.6371631 17.720744,17.4848852 18.1340038,17.350033 L18.405876,17.2627566 C19.800592,16.827441 21.7218834,16.4166974 24.0000112,16.4166974 Z M25.3333602,29.0833711 L22.6666913,29.0833711 L22.6666913,32.416719 L25.3333602,32.416719 L25.3333602,29.0833711 Z M24.0000175,9.75 C26.2033537,9.75 28.0366779,10.2546662 29.3206794,10.7586669 C29.8835977,10.9803339 30.3444317,11.202512 30.6893371,11.3858978 L30.8300164,11.4620025 C31.0247601,11.5692776 31.2155513,11.683575 31.4020171,11.8046686 L31.4140171,11.8126686 C31.4173602,11.8235079 31.3942745,11.8574578 31.2427544,12.0781322 L31.217,12.115 L31.4220364,11.8180062 C31.78384,12.0667281 32.0000371,12.4776226 32.0000371,12.9166732 L32.001021,15.2977858 C31.6357011,15.1469557 31.2002359,14.9815722 30.7006787,14.8166937 C29.0793642,14.2826931 26.7700176,13.7500244 24.0000143,13.7500244 C21.7240427,13.7489581 19.4623493,14.1092179 17.2993498,14.8173625 L17.0028087,14.9175786 C16.6260551,15.0482292 16.2905836,15.1774018 15.9996821,15.2974248 L16.0000175,12.9167553 C16.0000175,12.4777047 16.2161615,12.0667949 16.5779494,11.8180508 L16.594,11.842 L16.5885059,11.8325374 C16.5824443,11.8235844 16.5800634,11.8199595 16.5791628,11.8184577 L16.5980175,11.8046683 C16.6486791,11.7699723 16.7002529,11.7366273 16.7526842,11.7046682 C16.8271844,11.6586681 16.9245595,11.6002931 17.0436851,11.5326368 L17.1700178,11.4620021 C17.5357534,11.2624261 17.9107632,11.0805137 18.2937526,10.9168689 L18.6793539,10.7593356 C20.3744778,10.0941317 22.1790457,9.75180313 24.0000175,9.75 Z" id="形状结合" fill="url(#radialGradient-1)" fill-rule="nonzero"></path>
                <path d="M33.2633419,27.7547915 C34.967674,27.7520137 36.4450654,28.3848205 37.5077758,29.404609 C38.5948257,30.4477537 39.250002,31.8973048 39.250002,33.500002 C39.250002,35.0449272 38.6406997,36.4475342 37.6493232,37.4806696 C36.6537449,38.5181838 35.272791,39.1829313 33.7366623,39.2452125 C31.898647,39.2504022 30.4700122,38.60174 29.4341381,37.5658659 C28.3935927,36.5253205 27.750002,35.0878205 27.750002,33.500002 C27.750002,31.9550768 28.3593044,30.5524698 29.3506809,29.5193343 C30.3462593,28.4818201 31.7272132,27.8170727 33.2633419,27.7547915 Z" id="路径" stroke="#FFFFFF" fill-opacity="0.432588164" fill="#FFFFFF" fill-rule="nonzero"></path>
                <g id="形状备份-2" fill-rule="nonzero">
                    <use fill="black" fill-opacity="1" filter="url(#filter-3)" xlink:href="#path-2"></use>
                    <use fill="#FFFFFF" xlink:href="#path-2"></use>
                </g>
            </g>
        </g>
    </g>
</svg>