<?xml version="1.0" encoding="UTF-8"?>
<svg width="48px" height="48px" viewBox="0 0 48 48" version="1.1" xmlns="http://www.w3.org/2000/svg" xmlns:xlink="http://www.w3.org/1999/xlink">
    <title>问卷异常</title>
    <defs>
        <radialGradient cx="50%" cy="0%" fx="50%" fy="0%" r="109.452343%" gradientTransform="translate(0.5, 0), scale(1, 0.9136), rotate(90), translate(-0.5, -0)" id="radialGradient-1">
            <stop stop-color="#FD97A1" offset="0%"></stop>
            <stop stop-color="#FF3C44" offset="100%"></stop>
        </radialGradient>
        <radialGradient cx="50%" cy="0%" fx="50%" fy="0%" r="100%" gradientTransform="translate(0.5, 0), scale(0.4548, 1), rotate(90), translate(-0.5, -0)" id="radialGradient-2">
            <stop stop-color="#FD97A1" offset="0%"></stop>
            <stop stop-color="#FF3C44" offset="100%"></stop>
        </radialGradient>
        <path d="M34.7108297,34.8254698 C34.8266117,34.9452445 34.9114523,35.0550377 34.9653509,35.1548501 C35.0192495,35.2546625 35.0102664,35.3684485 34.9384016,35.4962079 C34.9224316,35.5201629 34.900473,35.5491084 34.8725255,35.5830446 C34.8445781,35.6169807 34.8156326,35.6499189 34.7856889,35.6818587 C34.7557452,35.7137985 34.7258016,35.7427443 34.6958579,35.7686953 C34.6659142,35.7946464 34.6409612,35.8136108 34.6209987,35.8255883 C34.5211863,35.8854756 34.4034083,35.9014457 34.2676635,35.8734981 C34.1319187,35.8455507 34.0101479,35.7776784 33.9023507,35.6698812 L33.6508239,35.4183544 L33.3154549,35.0829853 L32.9201985,34.6877289 L32.4890097,34.2565401 L31.7224518,35.023098 C31.4868952,35.2586546 31.2952557,35.4522907 31.1475334,35.6040051 C30.995819,35.7557195 30.8451024,35.8495432 30.6953841,35.8854756 C30.5456657,35.921408 30.4129153,35.8874718 30.2971333,35.7836671 L30.2552122,35.741746 L30.1893361,35.6758699 L30.12346,35.6099939 C30.0995051,35.5860389 30.0855314,35.5700689 30.0815389,35.562084 C30.0376215,35.5061892 30.0116701,35.4492964 30.0036854,35.3914051 C29.9957004,35.333514 30.000691,35.2766208 30.0186572,35.2207262 C30.0366234,35.1648314 30.0635727,35.1109329 30.0995051,35.0590304 C30.1354375,35.007128 30.1753626,34.959218 30.2192798,34.9153008 C30.2552122,34.8833609 30.3190922,34.8234737 30.4109192,34.7356388 L30.7343108,34.4002697 C30.866063,34.2725103 31.0127869,34.1287807 31.1744827,33.9690809 C31.3361785,33.8093812 31.5048614,33.6416966 31.6805307,33.4660273 C31.4888912,33.2743879 31.3062349,33.0927298 31.1325616,32.9210526 C30.9588883,32.7493754 30.8031813,32.595665 30.6654404,32.4599201 C30.5276995,32.3241753 30.4149119,32.2133838 30.327077,32.1275454 C30.239242,32.0417071 30.1853434,31.9888063 30.1653812,31.968844 C30.0615766,31.8650395 30.0086758,31.7622327 30.0066797,31.6604242 C30.0046835,31.5586158 30.0396178,31.455809 30.1114826,31.3520045 C30.1434225,31.3120796 30.1893361,31.2651678 30.2492234,31.2112692 C30.3091108,31.1573706 30.3510319,31.1224366 30.3749868,31.1064664 C30.4947615,31.0266168 30.6025587,30.9916822 30.6983784,31.0016636 C30.7941982,31.0116448 30.8900179,31.0665413 30.9858376,31.1663537 L31.1714884,31.3520045 C31.2633154,31.4438315 31.3771013,31.5556214 31.5128462,31.6873735 C31.648591,31.8191257 31.8013037,31.9678457 31.9709843,32.1335342 C32.1406648,32.2992227 32.3173325,32.4718976 32.5009871,32.6515596 C32.6527015,32.4998452 32.8014221,32.3521229 32.9471478,32.2083933 C33.0928734,32.0646637 33.2286182,31.9299172 33.3543816,31.8041538 C33.480145,31.6783904 33.593931,31.5656028 33.6957394,31.4657904 C33.7975479,31.365978 33.8823885,31.2821357 33.9502606,31.2142636 C34.0460803,31.1224366 34.1498849,31.0615509 34.2616747,31.0316072 C34.3734646,31.0016636 34.4812618,31.0266166 34.5850663,31.1064664 C34.5890588,31.1104589 34.6020344,31.1204401 34.6239931,31.1364101 C34.6459518,31.1523801 34.6679105,31.1703463 34.6898692,31.1903087 C34.7118279,31.2102711 34.7327884,31.2292354 34.7527509,31.2472016 C34.7727133,31.2651678 34.786687,31.2761472 34.794672,31.2801397 C34.9024692,31.3839442 34.9553695,31.4967324 34.9533734,31.6185031 C34.9513772,31.7402738 34.8984767,31.853062 34.794672,31.9568665 C34.7228072,32.0287313 34.6339745,32.1185623 34.5281734,32.2263595 C34.4223722,32.3341567 34.3045942,32.4519354 34.1748381,32.5796948 C34.045082,32.7074543 33.9083395,32.8431991 33.7646099,32.9869287 L33.3094661,33.4420724 C33.4571884,33.585802 33.6019158,33.7265372 33.7436493,33.8642781 C33.8853829,34.002019 34.017135,34.1307767 34.1389057,34.2505514 C34.2606764,34.3703261 34.3704703,34.4801193 34.468286,34.5799317 C34.5661018,34.6797441 34.6469497,34.7615898 34.7108297,34.8254698 Z" id="path-3"></path>
        <filter x="-140.0%" y="-102.1%" width="380.0%" height="385.8%" filterUnits="objectBoundingBox" id="filter-4">
            <feOffset dx="0" dy="2" in="SourceAlpha" result="shadowOffsetOuter1"></feOffset>
            <feGaussianBlur stdDeviation="2" in="shadowOffsetOuter1" result="shadowBlurOuter1"></feGaussianBlur>
            <feColorMatrix values="0 0 0 0 1   0 0 0 0 0   0 0 0 0 0.041025641  0 0 0 1 0" type="matrix" in="shadowBlurOuter1"></feColorMatrix>
        </filter>
    </defs>
    <g id="页面-1" stroke="none" stroke-width="0" fill="none" fill-rule="evenodd">
        <g id="患者入选-2备份-4" transform="translate(-1083, -862)">
            <g id="问卷异常" transform="translate(1083, 862)">
                <rect id="矩形备份-6" fill="#FFFFFF" x="0" y="0" width="48" height="48" rx="8"></rect>
                <g id="编组-2" transform="translate(13, 11)" fill-rule="nonzero">
                    <path d="M22.3035177,10.7524331 L22.3035177,4.69795002 C22.3035177,3.14762651 21.0350712,1.88211623 19.4876839,1.88211623 L17.7259527,1.88211623 L17.7259527,4.23109123 C17.7259527,5.26464024 16.8803217,6.11027124 15.8467727,6.11027124 L6.45674505,6.11027124 C5.42319605,6.11027124 4.57756505,5.26464024 4.57756505,4.23109123 L4.57756505,1.88211623 L2.81583379,1.88211623 C1.26551029,1.88211623 0,3.15056273 0,4.69795002 L0,23.4780052 C0,25.0283287 1.2684465,26.293839 2.81583379,26.293839 L19.4818115,26.293839 C21.032135,26.293839 22.2976453,25.0253925 22.2976453,23.4780052 L22.2976453,16.7158934 L22.3035177,10.7524331 Z M17.7259527,19.9016908 C17.7259527,20.4184653 17.3031372,20.8412808 16.7863627,20.8412808 L5.51715505,20.8412808 C5.00038055,20.8412808 4.57756505,20.4184653 4.57756505,19.9016908 C4.57756505,19.3849163 5.00038055,18.9621008 5.51715505,18.9621008 L16.7834264,18.9621008 C17.3031372,18.9621008 17.7259527,19.3849163 17.7259527,19.9016908 Z M17.7259527,15.4973626 C17.7259527,16.0141371 17.3031372,16.4369526 16.7863627,16.4369526 L5.51715505,16.4369526 C5.00038055,16.4369526 4.57756505,16.0141371 4.57756505,15.4973626 C4.57756505,14.9805881 5.00038055,14.5577726 5.51715505,14.5577726 L16.7834264,14.5577726 C17.3031372,14.5577726 17.7259527,14.9805881 17.7259527,15.4973626 Z M17.7259527,11.0930345 C17.7259527,11.609809 17.3031372,12.0326245 16.7863627,12.0326245 L5.51715505,12.0326245 C5.00038055,12.0326245 4.57756505,11.609809 4.57756505,11.0930345 C4.57756505,10.57626 5.00038055,10.1534445 5.51715505,10.1534445 L16.7834264,10.1534445 C17.3031372,10.1534445 17.7259527,10.57626 17.7259527,11.0930345 Z" id="形状" fill="url(#radialGradient-1)"></path>
                    <path d="M6.92654006,4.69795002 L15.3769776,4.69795002 C15.8937522,4.69795002 16.3165677,4.27513452 16.3165677,3.75836001 L16.3165677,1.87918001 L14.9071826,1.87918001 L14.9071826,0.939590003 C14.9071826,0.422815502 14.4843671,0 13.9675926,0 L8.33592506,0 C7.81915056,0 7.39633506,0.422815502 7.39633506,0.939590003 L7.39633506,1.87918001 L5.98695005,1.87918001 L5.98695005,3.75836001 C5.98695005,4.27513452 6.40976555,4.69795002 6.92654006,4.69795002 Z" id="路径" fill="url(#radialGradient-2)"></path>
                </g>
                <g id="编组备份" transform="translate(26.6667, 27.6667)" fill="#FFFFFF" fill-opacity="0.432588164" fill-rule="nonzero" stroke="#FFFFFF">
                    <path d="M5.7566461,-0.495522277 C7.67006449,-0.498078089 9.33707882,0.218367759 10.5367646,1.37390531 C11.7606616,2.55276308 12.5,4.18998569 12.5,6 C12.5,7.75082535 11.8077609,9.3399624 10.6820801,10.5086817 C9.55205726,11.6819091 7.98519217,12.4313246 6.2433539,12.4955223 C4.19266315,12.5003322 2.57578235,11.7681703 1.40380603,10.596194 C0.227537332,9.41992529 -0.5,7.79492526 -0.5,6 C-0.5,4.24917455 0.192239085,2.66003752 1.31791987,1.49131823 C2.44794269,0.318090883 4.01480779,-0.43132458 5.7566461,-0.495522277 Z" id="路径备份"></path>
                </g>
                <g id="路径" fill-rule="nonzero">
                    <use fill="black" fill-opacity="1" filter="url(#filter-4)" xlink:href="#path-3"></use>
                    <use fill="#FFFFFF" xlink:href="#path-3"></use>
                </g>
            </g>
        </g>
    </g>
</svg>