<?xml version="1.0" encoding="UTF-8"?>
<svg width="48px" height="48px" viewBox="0 0 48 48" version="1.1" xmlns="http://www.w3.org/2000/svg" xmlns:xlink="http://www.w3.org/1999/xlink">
    <title>聊天室消息</title>
    <defs>
        <radialGradient cx="50%" cy="0%" fx="50%" fy="0%" r="100%" id="radialGradient-1">
            <stop stop-color="#8FDCAB" offset="0%"></stop>
            <stop stop-color="#22A443" offset="100%"></stop>
        </radialGradient>
    </defs>
    <g id="页面-1" stroke="none" stroke-width="0" fill="none" fill-rule="evenodd">
        <g id="患者入选-2备份-4" transform="translate(-622, -862)">
            <g id="聊天室消息" transform="translate(622, 862)">
                <rect id="矩形备份-4" fill="#FFFFFF" x="0" y="0" width="48" height="48" rx="8"></rect>
                <g id="编组" transform="translate(12, 12)" fill-rule="nonzero">
                    <path d="M18.6666566,13.3333357 L18.6666563,13.3333357 C21.6121641,13.3333357 24,15.7211482 24,18.6666794 L24,22.6666871 L24,22.6666871 C24,23.4030676 23.4030469,24.0000207 22.6666664,24.0000207 L18.6666587,24.0000207 L18.6666584,24.0000207 C15.7211506,24.0002158 13.3331741,21.6125598 13.3329632,18.667052 C13.3327681,15.7215443 15.7204241,13.3335677 18.6659318,13.3333357 C18.6661675,13.3333357 18.6664032,13.3333357 18.6666389,13.3333357 L18.6666566,13.3333357 Z" id="路径" fill="#B9EECA"></path>
                    <path d="M12,0 L12,0 C18.6274217,0 24,5.37257803 24,12 C24,18.6274216 18.6274217,24 12,24 L2.66667195,24 L2.66667183,24 C1.19391326,24 0,22.806091 0,21.3333278 C0,21.3333278 0,21.3333278 0,21.3333278 L0,12 L0,12 C0,5.37257985 5.37257803,0 12,0 L12,0 Z" id="路径" fill="url(#radialGradient-1)"></path>
                    <path d="M6.66665678,11.9999998 L6.66665678,12 C6.66665678,12.7363805 7.26360989,13.3333336 7.99999035,13.3333336 C8.73637081,13.3333336 9.33332392,12.7363805 9.33332392,12 L9.33332392,12 C9.33332392,11.2636195 8.73637081,10.6666664 7.99999035,10.6666664 C7.26360989,10.6666664 6.66665678,11.2636195 6.66665678,12 L6.66665678,11.9999998 Z" id="路径" fill="#FFFFFF"></path>
                    <path d="M14.6666723,11.9999998 L14.6666723,12 C14.6666723,12.7363805 15.2636254,13.3333336 16.0000058,13.3333336 C16.7363863,13.3333336 17.3333394,12.7363805 17.3333394,12 L17.3333394,12 C17.3333394,11.2636195 16.7363863,10.6666664 16.0000058,10.6666664 C15.2636254,10.6666664 14.6666723,11.2636195 14.6666723,12 L14.6666723,11.9999998 Z" id="路径" fill="#FFFFFF"></path>
                </g>
            </g>
        </g>
    </g>
</svg>