<?xml version="1.0" encoding="UTF-8"?>
<svg width="160px" height="160px" viewBox="0 0 160 160" version="1.1" xmlns="http://www.w3.org/2000/svg" xmlns:xlink="http://www.w3.org/1999/xlink">
    <title>暂无数据@3x</title>
    <defs>
        <linearGradient x1="49.9673025%" y1="-2.31618957%" x2="49.9673025%" y2="101.080888%" id="linearGradient-1">
            <stop stop-color="#FDFEFF" offset="0%"></stop>
            <stop stop-color="#ECF0F5" offset="99.64%"></stop>
        </linearGradient>
        <path d="M101.512,31.17 L101.512,96.3 C101.512,101.05 97.748,104.81 93.002,104.81 L34.417,104.81 C29.671,104.81 25.907,101.05 25.907,96.3 L25.907,11.04 C25.907,6.3 29.671,2.53 34.417,2.53 L73.037,2.53 C75.165,2.53 77.129,3.35 78.601,4.82 L99.221,25.44 C100.694,27.08 101.512,29.04 101.512,31.17 Z" id="path-2"></path>
        <filter x="-50.9%" y="-26.9%" width="201.8%" height="175.3%" filterUnits="objectBoundingBox" id="filter-3">
            <feOffset dx="0" dy="11" in="SourceAlpha" result="shadowOffsetOuter1"></feOffset>
            <feGaussianBlur stdDeviation="11" in="shadowOffsetOuter1" result="shadowBlurOuter1"></feGaussianBlur>
            <feColorMatrix values="0 0 0 0 0.396078431   0 0 0 0 0.478431373   0 0 0 0 0.576470588  0 0 0 0.27 0" type="matrix" in="shadowBlurOuter1"></feColorMatrix>
        </filter>
    </defs>
    <g id="暂无数据" stroke="none" stroke-width="0" fill="none" fill-rule="evenodd">
        <g id="Group-34" transform="translate(16, 26)" fill-rule="nonzero">
            <path d="M63.7,107.5 C93.4,107.5 117.6,83.4 117.6,53.8 C117.5,24.1 93.4,0 63.7,0 C33.9,0 9.8,24.1 9.8,53.7 C9.8,83.4 33.9,107.5 63.7,107.5 Z" id="Path" fill="#EAEEF9"></path>
            <path d="M118.9,35 C121.164,35 123,33.16 123,30.9 C123,28.64 121.164,26.8 118.9,26.8 C116.635,26.8 114.8,28.64 114.8,30.9 C114.8,33.16 116.635,35 118.9,35 Z" id="Path" fill="#EAEEF9"></path>
            <path d="M124.9,19 C126.446,19 127.7,17.75 127.7,16.2 C127.7,14.65 126.446,13.4 124.9,13.4 C123.354,13.4 122.1,14.65 122.1,16.2 C122.1,17.75 123.354,19 124.9,19 Z" id="Path" fill="#EAEEF9"></path>
            <path d="M5.2,89.8 C8.072,89.8 10.4,87.47 10.4,84.6 C10.4,81.73 8.072,79.4 5.2,79.4 C2.328,79.4 0,81.73 0,84.6 C0,87.47 2.328,89.8 5.2,89.8 Z" id="Path" fill="#EAEEF9"></path>
            <g id="Path">
                <use fill="black" fill-opacity="1" filter="url(#filter-3)" xlink:href="#path-2"></use>
                <use fill="url(#linearGradient-1)" xlink:href="#path-2"></use>
            </g>
            <path d="M76.918,3.54 L76.918,21.48 C76.918,24.95 79.858,27.73 83.197,27.73 L100.747,27.73 C100.369,26.91 99.856,26.15 99.221,25.44 L78.601,4.82 C78.094,4.32 77.529,3.89 76.918,3.54 Z" id="Path" fill="#D5DDEA"></path>
            <path d="M51.187,87.07 L37.541,87.07 C37.031,87.07 36.624,86.53 36.624,85.88 C36.624,85.23 37.031,84.69 37.541,84.69 L51.187,84.69 C51.696,84.69 52.104,85.23 52.104,85.88 C52.104,86.64 51.696,87.07 51.187,87.07 Z" id="Path" fill="#D5DDEA"></path>
            <path d="M68.639,20.39 L37.95,20.39 C37.236,20.39 36.624,19.84 36.624,19.2 C36.624,18.56 37.236,18.01 37.95,18.01 L68.639,18.01 C69.353,18.01 69.965,18.56 69.965,19.2 C69.965,19.84 69.353,20.39 68.639,20.39 Z" id="Path" fill="#D6DCE8"></path>
            <path d="M49.697,27.54 L37.941,27.54 C37.232,27.54 36.624,26.99 36.624,26.35 C36.624,25.71 37.232,25.16 37.941,25.16 L49.596,25.16 C50.305,25.16 50.913,25.71 50.913,26.35 C50.913,26.99 50.305,27.54 49.697,27.54 Z" id="Path" fill="#D6DCE8"></path>
            <path d="M90.436,69.21 L54.65,69.21 L50.706,69.21 L38.777,69.21 C38.296,69.21 37.815,69.71 37.815,70.4 C37.815,71 38.2,71.59 38.777,71.59 L50.706,71.59 L54.65,71.59 L90.436,71.59 C90.917,71.59 91.398,71.1 91.398,70.4 C91.302,69.71 90.917,69.21 90.436,69.21 Z" id="Path" fill="#D6DCE8"></path>
            <path d="M90.435,60.88 L77.135,60.88 L72.606,60.88 L38.779,60.88 C38.297,60.88 37.815,61.37 37.815,62.07 C37.815,62.66 38.2,63.26 38.779,63.26 L72.606,63.26 L77.135,63.26 L90.435,63.26 C90.916,63.26 91.398,62.76 91.398,62.07 C91.302,61.37 90.916,60.88 90.435,60.88 Z" id="Path" fill="#D6DCE8"></path>
            <path d="M90.522,52.54 L87.066,52.54 L83.61,52.54 L38.775,52.54 C38.295,52.54 37.815,53.04 37.815,53.73 C37.815,54.33 38.199,54.92 38.775,54.92 L83.61,54.92 L87.45,54.92 L90.426,54.92 C90.906,54.92 91.386,54.43 91.386,53.73 C91.482,53.14 91.002,52.54 90.522,52.54 Z" id="Path" fill="#D6DCE8"></path>
            <path d="M90.447,44.21 L79.311,44.21 L76.551,44.21 L38.767,44.21 C38.291,44.21 37.815,44.7 37.815,45.4 C37.815,45.99 38.196,46.59 38.767,46.59 L76.551,46.59 L79.311,46.59 L90.351,46.59 C91.018,46.59 91.398,46.09 91.398,45.4 C91.398,44.8 91.018,44.21 90.447,44.21 Z" id="Path" fill="#D6DCE8"></path>
        </g>
    </g>
</svg>