<?xml version="1.0" encoding="UTF-8"?>
<svg width="28px" height="28px" viewBox="0 0 28 28" version="1.1" xmlns="http://www.w3.org/2000/svg" xmlns:xlink="http://www.w3.org/1999/xlink">
    <title>服务患者数</title>
    <defs>
        <linearGradient x1="0%" y1="17.905535%" x2="97.626361%" y2="17.905535%" id="linearGradient-1">
            <stop stop-color="#2D68F4" offset="0%"></stop>
            <stop stop-color="#268AFF" offset="100%"></stop>
        </linearGradient>
    </defs>
    <g id="服务患者数" stroke="none" stroke-width="0" fill="none" fill-rule="evenodd">
        <path d="M22,-8.8817842e-16 C25.3137085,-1.4968968e-15 28,2.6862915 28,6 L28,22 C28,25.3137085 25.3137085,28 22,28 L6,28 C2.6862915,28 -4.82366169e-16,25.3137085 -8.8817842e-16,22 L-8.8817842e-16,6 C-1.29399067e-15,2.6862915 2.6862915,-2.79460044e-16 6,-8.8817842e-16 L22,-8.8817842e-16 Z M13.8413901,14.4081081 L12.0164847,14.4081081 C8.69280463,14.4081081 6,17.1009128 6,20.6455775 L6,21.0715076 C6,21.5633766 6.37424816,21.9625746 6.8358209,21.9625746 L19.0220539,21.9625746 C19.4836266,21.9625746 19.8578748,21.5633766 19.8578748,21.0715076 L19.8578748,20.6455775 C19.8578748,17.1009128 17.1650702,14.4081081 13.8413901,14.4081081 Z M15.8195589,16.4023162 C15.9888617,16.4023162 16.126086,16.4878586 16.126086,16.5947867 L16.126086,17.5803068 L17.1775451,17.5803068 C17.282691,17.5803068 17.3664513,17.7193133 17.3664513,17.8921803 L17.3664513,18.5159273 C17.3664513,18.6887943 17.2809089,18.8278007 17.1775451,18.8278007 L16.126086,18.8278007 L16.126086,19.7206499 C16.126086,19.8257958 15.9888617,19.9131204 15.8195589,19.9131204 L15.2047227,19.9131204 C15.0354199,19.9131204 14.8981956,19.827578 14.8981956,19.7206499 L14.8981956,18.8278007 L13.8841613,18.8278007 C13.7790154,18.8278007 13.6952551,18.6887943 13.6952551,18.5159273 L13.6952551,17.8921803 C13.6952551,17.7193133 13.7807975,17.5803068 13.8841613,17.5803068 L14.8981956,17.5803068 L14.8981956,16.5947867 C14.8981956,16.4896408 15.0354199,16.4023162 15.2047227,16.4023162 Z M21.6435732,15.3419464 L20.046781,15.3419464 C19.8507463,15.3419464 19.6903542,15.5023385 19.6903542,15.6983732 L19.6903542,16.2330135 C19.6903542,16.4290482 19.8507463,16.5894403 20.046781,16.5894403 L21.6435732,16.5894403 C21.8396079,16.5894403 22,16.4290482 22,16.2330135 L22,15.6983732 C22,15.5023385 21.8396079,15.3419464 21.6435732,15.3419464 Z M12.4441969,6 C10.4658556,6 8.85002373,7.58191143 8.74783514,9.57240959 L8.74270439,9.7727779 C8.74270439,11.8564313 10.3999198,13.5455558 12.4441969,13.5455558 C14.4225382,13.5455558 16.0383701,11.9636427 16.1405587,9.97314605 L16.1456895,9.7727779 C16.1456895,7.68912453 14.488474,6 12.4441969,6 Z M21.5990198,12.2178653 L18.7476053,12.2178653 C18.5515705,12.2178653 18.3911784,12.3782574 18.3911784,12.5742921 L18.3911784,13.1089324 C18.3911784,13.3049671 18.5515705,13.4653592 18.7476053,13.4653592 L21.5990198,13.4653592 C21.7968367,13.4653592 21.9554466,13.3067493 21.9554466,13.1089324 L21.9554466,12.5742921 C21.9554466,12.3782574 21.7950546,12.2178653 21.5990198,12.2178653 Z M21.6186233,9.29516539 L17.6480285,9.29516539 C17.4519938,9.29516539 17.2916017,9.45555746 17.2916017,9.65159221 L17.2916017,10.1862324 C17.2916017,10.3822672 17.4519938,10.5426593 17.6480285,10.5426593 L21.6186233,10.5426593 C21.8146581,10.5426593 21.9750501,10.3840493 21.9750501,10.1862324 L21.9750501,9.65159221 C21.9750501,9.45555746 21.8146581,9.29516539 21.6186233,9.29516539 Z" id="形状结合" fill="url(#linearGradient-1)"></path>
    </g>
</svg>