<?xml version="1.0" encoding="UTF-8"?>
<svg width="10px" height="13px" viewBox="0 0 10 13" version="1.1" xmlns="http://www.w3.org/2000/svg" xmlns:xlink="http://www.w3.org/1999/xlink">
    <title>编组 2</title>
    <g id="页面-1" stroke="none" stroke-width="0" fill="none" fill-rule="evenodd">
        <g id="患者入选-2备份-4" transform="translate(-1305, -720)" fill-rule="nonzero">
            <g id="编组-2" transform="translate(1305, 720)">
                <path d="M0.378787879,5.07575758 L9.54545455,5.07575758 C9.62121212,5.07575758 9.77272727,5.07575758 9.84848485,5 C9.92424242,4.84848485 10,4.77272727 10,4.62121212 C10,4.54545455 9.84848485,4.39393939 9.6969697,4.24242424 C9.6969697,4.24242424 7.04545455,1.74242424 5.45454545,0.151515152 C5.45454545,0.151515152 5.3030303,0 5,0 C4.84848485,0 4.6969697,0 4.46969697,0.227272727 L0.151515152,4.39393939 C0.0757575758,4.46969697 0,4.62121212 0,4.6969697 C0,4.84848485 0.151515152,5.07575758 0.378787879,5.07575758 Z" id="路径" fill="#E3E3E3"></path>
                <path d="M9.62121212,7.04545455 L0.454545455,7.04545455 C0.378787879,7.04545455 0.227272727,7.12121212 0.151515152,7.12121212 C0.0757575758,7.27272727 0,7.34848485 0,7.5 C0,7.57575758 0.151515152,7.72727273 0.303030303,7.87878788 C0.303030303,7.87878788 2.95454545,10.3787879 4.54545455,11.969697 C4.54545455,11.969697 4.6969697,12.1212121 5,12.1212121 C5.15151515,12.1212121 5.3030303,12.1212121 5.53030303,11.8939394 L9.84848485,7.72727273 C9.92424242,7.65151515 10,7.5 10,7.42424242 C10,7.27272727 9.84848485,7.04545455 9.62121212,7.04545455 Z" id="路径" fill="var(--g-ui-primary)"></path>
            </g>
        </g>
    </g>
</svg>
