<?xml version="1.0" encoding="UTF-8"?>
<svg width="14px" height="14px" viewBox="0 0 14 14" version="1.1" xmlns="http://www.w3.org/2000/svg" xmlns:xlink="http://www.w3.org/1999/xlink">
    <title>问号</title>
    <g id="页面-1" stroke="none" stroke-width="0" fill="none" fill-rule="evenodd">
        <g id="患者入选-2备份-5" transform="translate(-1323, -718)" fill="#999999" fill-rule="nonzero">
            <g id="问号" transform="translate(1323, 718)">
                <path d="M7,0 L7,0 C3.13400805,0 -3.42547752e-16,3.13400805 -3.42547752e-16,7 C-3.42547752e-16,10.865992 3.13400805,14 7,14 C10.865992,14 14,10.865992 14,7 L14,7 C14,3.13400836 10.865992,0 7,0 L7,0 Z M7.44121243,10.4363636 L7.44121244,10.4363636 C7.30135032,10.5683647 7.11594942,10.6413092 6.92363669,10.64 L6.92363671,10.64 C6.72922596,10.6437788 6.54190304,10.5670074 6.40606095,10.4278788 L6.40606097,10.4278788 C6.26824317,10.2946481 6.19149871,10.1104593 6.19393976,9.91878788 L6.19393974,9.91878734 C6.18604591,9.72610008 6.26368387,9.53976982 6.40606095,9.40969643 L6.40606091,9.40969648 C6.54333863,9.27367889 6.73047876,9.20004946 6.92363666,9.20606012 L6.92363668,9.20606011 C7.11953393,9.19870431 7.30980998,9.27236009 7.44969729,9.40969648 L7.44969726,9.40969646 C7.59207468,9.53977001 7.6697117,9.7261001 7.66181848,9.91878737 L7.6618185,9.91878881 C7.66472282,10.1172067 7.58477408,10.3078523 7.44121078,10.4448494 L7.44121243,10.4363636 Z M8.88363667,6.53333333 L8.88363674,6.53333326 C8.6157028,6.80927478 8.33242652,7.06989055 8.0351519,7.31393932 L8.03515185,7.31393936 C7.86068215,7.4542824 7.7188178,7.63088822 7.61939427,7.83151511 L7.61939428,7.8315151 C7.50957283,8.0345615 7.45404281,8.26252717 7.45818216,8.49333328 L7.45818216,8.66303025 L6.3975761,8.66303025 L6.3975761,8.49333328 L6.39757612,8.4933337 C6.38568092,8.16458725 6.4556559,7.83803659 6.60121248,7.54303067 L6.60121236,7.54303086 C6.90330445,7.06597026 7.28166903,6.64174275 7.72121236,6.28727329 L7.89090933,6.10060662 L7.89090937,6.10060657 C8.06446595,5.89626921 8.16322495,5.63889658 8.17090937,5.3709096 L8.17090943,5.3709131 C8.16593979,5.07931604 8.05074293,4.80041641 7.8484885,4.59030538 L7.84848848,4.59030537 C7.61743214,4.38068984 7.31134786,4.27356034 7.00000363,4.29333567 L7.00000361,4.29333567 C6.62224059,4.26175032 6.25442738,4.42486739 6.02424604,4.72606294 L6.02424591,4.72606314 C5.82798738,5.02804586 5.73289742,5.38463819 5.75273075,5.74424496 L4.73454894,5.74424496 L4.7345489,5.74424408 C4.70610178,5.11700829 4.93256902,4.50493584 5.36242768,4.04727438 L5.36242764,4.04727442 C5.82960141,3.60426756 6.45905951,3.37397849 7.10182158,3.41091079 L7.10182155,3.41091079 C7.67586298,3.36180291 8.24685516,3.53492265 8.69697306,3.89454715 L8.69697306,3.89454715 C9.10576212,4.25578129 9.32754645,4.78368802 9.2993973,5.32848655 L9.29939736,5.32849351 C9.30281438,5.76844782 9.15616284,6.19642556 8.88363481,6.54182518 L8.88363667,6.53333333 Z" id="形状"></path>
            </g>
        </g>
    </g>
</svg>