<?xml version="1.0" encoding="UTF-8"?>
<svg width="28px" height="28px" viewBox="0 0 28 28" version="1.1" xmlns="http://www.w3.org/2000/svg" xmlns:xlink="http://www.w3.org/1999/xlink">
    <title>日程</title>
    <defs>
        <linearGradient x1="0%" y1="17.905535%" x2="97.626361%" y2="17.905535%" id="linearGradient-1">
            <stop stop-color="#2D68F4" offset="0%"></stop>
            <stop stop-color="#268AFF" offset="100%"></stop>
        </linearGradient>
    </defs>
    <g id="日程" stroke="none" stroke-width="0" fill="none" fill-rule="evenodd">
        <path d="M22,-8.8817842e-16 C25.3137085,-1.4968968e-15 28,2.6862915 28,6 L28,22 C28,25.3137085 25.3137085,28 22,28 L6,28 C2.6862915,28 -4.82366169e-16,25.3137085 -8.8817842e-16,22 L-8.8817842e-16,6 C-1.29399067e-15,2.6862915 2.6862915,-2.79460044e-16 6,-8.8817842e-16 L22,-8.8817842e-16 Z M18.1666661,6 C17.7999993,6 17.4999987,6.30000063 17.4999987,6.66666741 L17.499,7.333 L11.166,7.333 L11.1666573,6.66666741 C11.1666573,6.30000063 10.8666567,6 10.4999899,6 C10.1333231,6 9.83332247,6.30000063 9.83332247,6.66666741 L9.833,7.333 L7,7.33333482 C6.45000094,7.33333482 6,7.78333576 6,8.33333482 L6,21.6667046 C6,22.2167058 6.45000094,22.6667067 7,22.6667067 L21.6666929,22.6667067 C22.2166941,22.6667067 22.666695,22.2167058 22.666695,21.6667046 L22.666695,8.33333482 L22.6599348,8.21713601 C22.6018989,7.72134583 22.1774083,7.33333482 21.6666929,7.33333482 L18.833,7.333 L18.8333335,6.66666741 C18.8333335,6.30000063 18.5333328,6 18.1666661,6 Z M19.824984,17.8917045 C20.0833185,17.63337 20.5083194,17.63337 20.766652,17.8917045 C21.0249865,18.1417051 21.0249865,18.558372 20.766652,18.8250405 L19.1166485,20.475042 C18.858314,20.7333765 18.4333131,20.7333765 18.1749805,20.475042 L17.2333125,19.533374 C16.974978,19.2750395 16.974978,18.8500386 17.2333125,18.591706 C17.4916471,18.3333715 17.916648,18.3333715 18.1749805,18.591706 L18.6499815,19.066707 Z M9.66662876,18.3333656 C10.3082961,18.3333656 10.8332972,18.8583667 10.8332972,19.5000341 C10.8332972,20.1417014 10.3082961,20.6667025 9.66662876,20.6667025 C9.0249614,20.6667025 8.4999603,20.1417014 8.4999603,19.5000341 C8.4999603,18.8583667 9.0249614,18.3333656 9.66662876,18.3333656 Z M14.3332987,18.3333656 C14.974966,18.3333656 15.4999671,18.8583667 15.4999671,19.5000341 C15.4999671,20.1417014 14.974966,20.6667025 14.3332987,20.6667025 C13.6916313,20.6667025 13.1666302,20.1417014 13.1666302,19.5000341 C13.1666302,18.8583667 13.6916313,18.3333656 14.3332987,18.3333656 Z M18.9999881,14.66669 C19.6416555,14.66669 20.1666566,15.1916911 20.1666566,15.8333584 C20.1666566,16.4750258 19.6416555,17.0000269 18.9999881,17.0000269 C18.3583208,17.0000269 17.8333197,16.4750258 17.8333197,15.8333584 C17.8333197,15.1916911 18.3583208,14.66669 18.9999881,14.66669 Z M9.66662876,14.6666978 C10.3082961,14.6666978 10.8332972,15.1916989 10.8332972,15.8333663 C10.8332972,16.4750336 10.3082961,17.0000347 9.66662876,17.0000347 C9.0249614,17.0000347 8.4999603,16.4750336 8.4999603,15.8333663 C8.4999603,15.1916989 9.0249614,14.6666978 9.66662876,14.6666978 Z M14.3332987,14.6666978 C14.974966,14.6666978 15.4999671,15.1916989 15.4999671,15.8333663 C15.4999671,16.4750336 14.974966,17.0000347 14.3332987,17.0000347 C13.6916313,17.0000347 13.1666302,16.4750336 13.1666302,15.8333663 C13.1666302,15.1916989 13.6916313,14.6666978 14.3332987,14.6666978 Z M9.833,8.666 L9.83332247,9.36667305 C9.83332247,9.73333984 10.1333231,10.0333405 10.4999899,10.0333405 C10.8666567,10.0333405 11.1666573,9.74167384 11.1666573,9.36667305 L11.166,8.666 L17.499,8.666 L17.4999987,9.36667305 C17.4999987,9.73333984 17.7999993,10.0333405 18.1666661,10.0333405 C18.5333328,10.0333405 18.8333335,9.74167384 18.8333335,9.36667305 L18.833,8.666 L21.3333582,8.66667745 L21.333,12.666 L7.333,12.666 L7.33332896,8.66667745 L9.833,8.666 Z" id="形状结合" fill="url(#linearGradient-1)"></path>
    </g>
</svg>