<?xml version="1.0" encoding="UTF-8"?>
<svg width="10px" height="13px" viewBox="0 0 10 13" version="1.1" xmlns="http://www.w3.org/2000/svg" xmlns:xlink="http://www.w3.org/1999/xlink">
    <title>编组</title>
    <g id="页面-1" stroke="none" stroke-width="0" fill="none" fill-rule="evenodd">
        <g id="患者入选-2备份-5" transform="translate(-1303, -720)" fill-rule="nonzero">
            <g id="编组" transform="translate(1303, 720)">
                <path d="M0.378787879,12.1212121 L9.54545455,12.1212121 C9.62121212,12.1212121 9.77272727,12.1212121 9.84848485,12.0454545 C9.92424242,11.8939394 10,11.8181818 10,11.6666667 C10,11.5909091 9.84848485,11.4393939 9.6969697,11.2878788 C9.6969697,11.2878788 7.04545455,8.78787879 5.45454545,7.1969697 C5.45454545,7.1969697 5.3030303,7.04545455 5,7.04545455 C4.84848485,7.04545455 4.6969697,7.04545455 4.46969697,7.27272727 L0.151515152,11.4393939 C0.0757575758,11.5151515 4.54747351e-13,11.6666667 4.54747351e-13,11.7424242 C4.54747351e-13,11.8939394 0.151515152,12.1212121 0.378787879,12.1212121 Z" id="路径备份-4" fill="#E3E3E3" transform="translate(5, 9.5833) rotate(-180) translate(-5, -9.5833)"></path>
                <path d="M9.62121212,0 L0.454545455,0 C0.378787879,0 0.227272727,0.0757575758 0.151515152,0.0757575758 C0.0757575758,0.227272727 0,0.303030303 0,0.454545455 C0,0.53030303 0.151515152,0.681818182 0.303030303,0.833333333 C0.303030303,0.833333333 2.95454545,3.33333333 4.54545455,4.92424242 C4.54545455,4.92424242 4.6969697,5.07575758 5,5.07575758 C5.15151515,5.07575758 5.3030303,5.07575758 5.53030303,4.84848485 L9.84848485,0.681818182 C9.92424242,0.606060606 10,0.454545455 10,0.378787879 C10,0.227272727 9.84848485,0 9.62121212,0 Z" id="路径备份-5" fill="var(--g-ui-primary)" transform="translate(5, 2.5379) rotate(-180) translate(-5, -2.5379)"></path>
            </g>
        </g>
    </g>
</svg>
