<?xml version="1.0" standalone="no"?><!DOCTYPE svg PUBLIC "-//W3C//DTD SVG 1.1//EN" "http://www.w3.org/Graphics/SVG/1.1/DTD/svg11.dtd"><svg class="icon" width="200px" height="189.81px" viewBox="0 0 1079 1024" version="1.1" xmlns="http://www.w3.org/2000/svg"><path d="M93.770374 904.48061a24.975038 24.975038 0 0 1 19.211568 7.684627 25.551385 25.551385 0 0 1 7.684627 19.211568v91.254947H26.914118a24.975038 24.975038 0 0 1-19.211568-7.684627 25.551385 25.551385 0 0 1-7.684627-19.211568v-43.418143h98.171111v-21.516956a4.418661 4.418661 0 0 0-1.152694-3.073851 4.226545 4.226545 0 0 0-3.265966-1.344809H0.978502v-21.901188z m4.41866 96.057839v-26.319848H22.495458v21.516956a4.034429 4.034429 0 0 0 1.152694 3.073851 4.226545 4.226545 0 0 0 3.265966 1.34481z m211.327246-96.057839h23.438113l-43.802375 117.574795h-19.211568l-38.423135-87.412633-38.423136 87.412633H175.419537l-45.723531-117.574795h23.245997l31.891202 77.998966 33.812359-77.998966h24.975038l35.925632 77.998966 29.77793-77.998966z m123.722496 0a24.590807 24.590807 0 0 1 19.211568 7.684627 25.743501 25.743501 0 0 1 7.876743 19.211568v43.418143h-98.747458v21.516956a3.650198 3.650198 0 0 0 1.344809 3.073851 3.842314 3.842314 0 0 0 3.073851 1.34481h93.368219v21.901187h-93.368219a25.167154 25.167154 0 0 1-19.211568-7.684627 25.551385 25.551385 0 0 1-7.684627-19.211568v-64.935099a25.167154 25.167154 0 0 1 7.684627-19.211568 25.551385 25.551385 0 0 1 19.211568-7.684627z m-71.467032 47.836804h75.885693v-21.516956a3.842314 3.842314 0 0 0-1.34481-3.073851 4.034429 4.034429 0 0 0-3.073851-1.344809h-67.240487a4.610776 4.610776 0 0 0-4.41866 4.41866z m237.454978-21.32484v4.41866h-21.901187v-4.41866a3.650198 3.650198 0 0 0-1.34481-3.073851 4.034429 4.034429 0 0 0-3.073851-1.34481h-67.240487a3.842314 3.842314 0 0 0-3.073851 1.34481 3.650198 3.650198 0 0 0-1.34481 3.073851v17.674642a3.650198 3.650198 0 0 0 1.34481 3.073851 3.842314 3.842314 0 0 0 3.073851 1.34481h67.048371a25.167154 25.167154 0 0 1 19.211568 7.684627 26.319848 26.319848 0 0 1 7.684627 19.211568v17.098295a25.935616 25.935616 0 0 1-7.684627 19.211568 25.551385 25.551385 0 0 1-19.211568 7.684627h-67.048371a25.167154 25.167154 0 0 1-19.211568-7.684627 26.319848 26.319848 0 0 1-7.684627-19.211568v-4.418661h21.709072v4.418661a3.650198 3.650198 0 0 0 1.344809 3.073851 3.842314 3.842314 0 0 0 3.073851 1.34481h67.048372a4.034429 4.034429 0 0 0 3.07385-1.34481 3.650198 3.650198 0 0 0 1.34481-3.073851v-17.098295a3.842314 3.842314 0 0 0-1.34481-3.073851 4.034429 4.034429 0 0 0-3.07385-1.34481h-66.279909a25.167154 25.167154 0 0 1-19.211568-7.684627 26.319848 26.319848 0 0 1-7.684627-19.211568v-17.098295a25.935616 25.935616 0 0 1 7.684627-19.211568 25.551385 25.551385 0 0 1 19.211568-7.684627h67.048371a25.167154 25.167154 0 0 1 19.211568 7.684627 25.743501 25.743501 0 0 1 7.684627 19.211568z m46.299878-26.511964h66.279909a25.167154 25.167154 0 0 1 19.211568 7.684627 26.319848 26.319848 0 0 1 7.684627 19.211568v64.935099a25.935616 25.935616 0 0 1-7.684627 19.211568 25.551385 25.551385 0 0 1-19.211568 7.684627h-66.472025a25.167154 25.167154 0 0 1-19.211567-7.684627 26.319848 26.319848 0 0 1-7.684627-19.211568v-65.511446a25.935616 25.935616 0 0 1 7.684627-19.211568 25.551385 25.551385 0 0 1 19.211567-7.684627z m66.279909 21.901188h-66.472025a4.610776 4.610776 0 0 0-4.41866 4.41866v64.935099a3.650198 3.650198 0 0 0 1.34481 3.073851 3.842314 3.842314 0 0 0 3.07385 1.34481h66.472025a3.842314 3.842314 0 0 0 3.073851-1.34481 3.650198 3.650198 0 0 0 1.34481-3.073851v-64.935099a3.842314 3.842314 0 0 0-1.34481-3.073851 4.610776 4.610776 0 0 0-3.073851-1.344809z m197.879148-21.901188a24.782922 24.782922 0 0 1 19.211568 7.684627 25.743501 25.743501 0 0 1 7.876742 19.211568v91.254947h-22.093302v-91.831294a3.650198 3.650198 0 0 0-1.152695-3.073851 4.418661 4.418661 0 0 0-3.265966-1.344809h-46.491994a4.610776 4.610776 0 0 0-4.418661 4.41866v91.254947h-21.901187v-91.254947a3.842314 3.842314 0 0 0-1.34481-3.073851 3.650198 3.650198 0 0 0-3.07385-1.344809h-46.491994a3.650198 3.650198 0 0 0-3.073851 1.344809 3.842314 3.842314 0 0 0-1.34481 3.073851v91.254947h-21.901187v-117.574795z m140.628676 0a24.975038 24.975038 0 0 1 19.211568 7.684627 25.551385 25.551385 0 0 1 7.684627 19.211568v43.418143h-97.594764v21.516956a4.034429 4.034429 0 0 0 1.152694 3.073851 4.226545 4.226545 0 0 0 3.265966 1.34481h92.791872v21.901187h-92.791872a24.975038 24.975038 0 0 1-19.211568-7.684627 25.551385 25.551385 0 0 1-7.684627-19.211568v-64.935099a26.319848 26.319848 0 0 1 26.319848-26.319848z m-71.274916 47.836804h75.693577v-21.516956a4.418661 4.418661 0 0 0-1.152695-3.073851 4.226545 4.226545 0 0 0-3.265966-1.344809h-66.279909a4.226545 4.226545 0 0 0-3.265966 1.344809 4.418661 4.418661 0 0 0-1.152694 3.073851v21.516956z" fill="#494368" /><path d="M1076.826296 381.34962L801.140299 128.141157l-38.423136 42.265449 230.538814 211.327245H85.5094l230.538813-211.327245-38.423136-42.265449L0.978502 381.34962v166.948524c0 75.309346 72.619726 136.786362 161.953516 136.786363h170.21449c89.141674 0 161.953516-61.477017 161.953517-136.786363v-109.698052h88.181096v109.698052c0 75.309346 72.811842 136.786362 161.953516 136.786363h170.21449c89.33379 0 161.953516-61.477017 161.953516-136.786363v-166.948524z" fill="#FC60A8" /><path d="M833.607849 0h196.342222L538.902399 843.387825 47.854727 0h375.778265l115.269407 195.57376L651.866417 0z" fill="#41B883" /><path d="M47.854727 0l491.047672 843.387825L1029.950071 0H833.607849L538.902399 506.801158 241.891561 0z" fill="#41B883" /><path d="M241.891561 0l297.010838 508.530199L833.607849 0H651.866417l-112.964018 195.57376-115.269407-195.57376z" fill="#35495E" /><path d="M901.616798 220.356682l-29.585814 50.718539 120.264414 110.274399H85.701515l120.072299-110.274399-29.585814-50.718539-175.209498 160.992938v166.948524c0 75.309346 72.811842 136.786362 161.953516 136.786363h170.21449c89.33379 0 161.953516-61.477017 161.953517-136.786363v-109.698052h88.373211v109.698052c0 75.309346 72.619726 136.786362 161.953517 136.786363h170.21449c89.141674 0 161.953516-61.477017 161.953516-136.786363v-166.948524z" fill="#FC60A8" /></svg>